<svg xmlns="http://www.w3.org/2000/svg" width="154" height="96" viewBox="0 0 154 96">
  <defs>
    <marker id="arr" viewBox="0 0 8 8" refX="7" refY="4" markerWidth="5" markerHeight="5" orient="auto-start-reverse"><path d="M0 0l8 4-8 4z" fill="#365f9c"/></marker>
    <style>
      .bg{fill:#fbfcff}.box{fill:#fff;stroke:#b9c3d3;stroke-width:1.1}.b{fill:#e9f2ff;stroke:#365f9c;stroke-width:1.2}.g{fill:#e7f4ef;stroke:#2e7f6c;stroke-width:1.2}.y{fill:#fff5d8;stroke:#a97609;stroke-width:1.2}.r{fill:#ffe9eb;stroke:#aa4b58;stroke-width:1.2}.line{fill:none;stroke:#365f9c;stroke-width:1.65;stroke-linecap:round;stroke-linejoin:round}.thin{fill:none;stroke:#71819a;stroke-width:.9;stroke-linecap:round;stroke-linejoin:round}.grid{fill:none;stroke:#d4dbe6;stroke-width:.75}.axis{fill:none;stroke:#6f7f96;stroke-width:1.05}.dark{fill:#2d3646}.m{fill:#365f9c}.ok{fill:#2e7f6c}.w{fill:#a97609}.p0{fill:#f3f7fd}.p1{fill:#d6e6fb}.p2{fill:#a9c9f3}.p3{fill:#6d9dde}.p4{fill:#2e62a7}
    </style>
  </defs>

  <symbol id="thumb-socialomni" viewBox="0 0 154 96">
    <rect class="bg" width="154" height="96"/>
    <rect class="box" x="10" y="13" width="55" height="25"/><rect class="p1" x="15" y="18" width="12" height="15"/><rect class="p0" x="31" y="18" width="12" height="15"/><rect class="p2" x="47" y="18" width="12" height="15"/>
    <path class="axis" d="M12 62h58M12 62V45"/><path class="line" d="M14 58c8-17 13-17 21 0s13 17 21 0"/><path class="thin" d="M20 67v7M35 67v7M54 67v7"/><rect class="g" x="82" y="18" width="56" height="17"/><path class="line" d="M92 26h34" marker-end="url(#arr)"/><rect class="y" x="82" y="55" width="13" height="13"/><rect class="b" x="103" y="55" width="13" height="13"/><rect class="r" x="124" y="55" width="13" height="13"/><path class="thin" d="M95 61h8M116 61h8"/>
  </symbol>

  <symbol id="thumb-a2rbench" viewBox="0 0 154 96">
    <rect class="bg" width="154" height="96"/>
    <rect class="box" x="10" y="17" width="36" height="28"/><path class="thin" d="M17 26h21M17 35h16"/><path class="line" d="M50 31h18" marker-end="url(#arr)"/><rect class="box" x="75" y="14" width="32" height="34"/><path class="grid" d="M83 14v34M91 14v34M99 14v34M75 22h32M75 31h32M75 40h32"/><rect class="p3" x="83" y="22" width="8" height="9"/><rect class="p2" x="91" y="31" width="8" height="9"/><path class="axis" d="M118 72h25M118 72V31"/><path class="line" d="M120 66c4-12 8-18 13-23s7-8 11-10"/><circle class="ok" cx="143" cy="33" r="3"/>
  </symbol>

  <symbol id="thumb-quota" viewBox="0 0 154 96">
    <rect class="bg" width="154" height="96"/>
    <rect class="box" x="11" y="15" width="58" height="24"/><path class="thin" d="M16 24h48M16 31h31"/><path class="axis" d="M13 78h56M13 78V48"/><rect class="b" x="19" y="64" width="7" height="14"/><rect class="y" x="32" y="54" width="7" height="24"/><rect class="g" x="45" y="59" width="7" height="19"/><rect class="r" x="58" y="68" width="7" height="10"/>
    <path class="line" d="M76 47h15" marker-end="url(#arr)"/><rect class="box" x="99" y="15" width="40" height="58"/><path class="grid" d="M107 15v58M115 15v58M123 15v58M131 15v58M99 26h40M99 38h40M99 50h40M99 62h40"/><rect class="p1" x="107" y="26" width="8" height="12"/><rect class="p4" x="115" y="15" width="8" height="47"/><rect class="p2" x="123" y="38" width="8" height="24"/>
  </symbol>

  <symbol id="thumb-video-rag" viewBox="0 0 154 96">
    <rect class="bg" width="154" height="96"/>
    <rect class="box" x="10" y="21" width="43" height="29"/><path class="thin" d="M19 21v29M30 21v29M41 21v29"/><path class="line" d="M58 36h15" marker-end="url(#arr)"/>
    <circle class="b" cx="87" cy="24" r="5"/><circle class="g" cx="104" cy="39" r="5"/><circle class="y" cx="85" cy="58" r="5"/><circle class="r" cx="116" cy="61" r="5"/><path class="thin" d="M91 27l9 8M101 43L89 55M108 42l6 15M90 59l20 2"/>
    <path class="line" d="M122 49h14" marker-end="url(#arr)"/><rect class="box" x="139" y="30" width="7" height="37"/>
  </symbol>

  <symbol id="thumb-vita15" viewBox="0 0 154 96">
    <rect class="bg" width="154" height="96"/>
    <rect class="box" x="12" y="18" width="34" height="28"/><circle class="m" cx="29" cy="32" r="6"/><path class="axis" d="M58 74h52M58 74V22"/><path class="grid" d="M58 61h52M58 48h52M58 35h52"/><path class="line" d="M60 58c7-37 16-37 24 0s16 37 24 0"/><rect class="box" x="121" y="21" width="23" height="48"/><path class="thin" d="M127 32h11M127 43h11M127 54h11"/>
  </symbol>

  <symbol id="thumb-video-mme" viewBox="0 0 154 96">
    <rect class="bg" width="154" height="96"/>
    <rect class="box" x="12" y="21" width="42" height="27"/><path class="thin" d="M22 21v27M33 21v27M44 21v27"/><polygon class="grid" points="105,18 130,38 120,69 90,69 80,38"/><polygon class="grid" points="105,29 119,41 114,59 96,59 91,41"/><path class="line" d="M105 43l19-5M105 43l14 25M105 43L91 69M105 43V18"/><circle class="m" cx="105" cy="43" r="3.5"/><path class="axis" d="M77 76h58"/>
  </symbol>

  <symbol id="thumb-mme" viewBox="0 0 154 96">
    <rect class="bg" width="154" height="96"/>
    <rect class="box" x="11" y="14" width="62" height="50"/><path class="grid" d="M23 14v50M35 14v50M47 14v50M59 14v50M11 24h62M11 34h62M11 44h62M11 54h62"/><rect class="p1" x="23" y="24" width="12" height="10"/><rect class="p4" x="35" y="34" width="12" height="10"/><rect class="p3" x="47" y="24" width="12" height="10"/><rect class="p2" x="59" y="44" width="12" height="10"/>
    <path class="axis" d="M90 72h45M90 72V30"/><rect class="b" x="96" y="53" width="6" height="19"/><rect class="g" x="108" y="45" width="6" height="27"/><rect class="y" x="120" y="36" width="6" height="36"/><rect class="r" x="132" y="58" width="6" height="14"/>
  </symbol>

  <symbol id="thumb-metagpt" viewBox="0 0 154 96">
    <rect class="bg" width="154" height="96"/>
    <rect class="b" x="9" y="20" width="28" height="16"/><rect class="g" x="48" y="20" width="28" height="16"/><rect class="y" x="87" y="20" width="28" height="16"/><rect class="r" x="126" y="20" width="20" height="16"/><path class="line" d="M37 28h11M76 28h11M115 28h11"/><rect class="box" x="37" y="58" width="78" height="18"/><path class="thin" d="M46 67h60M76 36v22"/>
  </symbol>

  <symbol id="thumb-good-estimation" viewBox="0 0 154 96">
    <rect class="bg" width="154" height="96"/>
    <path class="axis" d="M14 76h58M14 76V22"/><path class="grid" d="M14 62h58M14 48h58M14 34h58M28 76V22M43 76V22M58 76V22"/><circle class="m" cx="27" cy="59" r="3.5"/><circle class="ok" cx="44" cy="38" r="3.5"/><circle class="w" cx="62" cy="51" r="3.5"/><path class="thin" d="M27 59l17-21 18 13"/>
    <path class="axis" d="M88 76h51M88 76V24"/><path class="grid" d="M88 62h51M88 48h51M88 34h51M101 76V24M115 76V24M129 76V24"/><path class="line" d="M91 67c13-27 30-29 45-10"/>
  </symbol>

  <symbol id="thumb-itpruner" viewBox="0 0 154 96">
    <rect class="bg" width="154" height="96"/>
    <path class="thin" d="M18 28h34M18 45h34M18 62h34M52 28h30M52 45h30M52 62h30"/><rect class="b" x="14" y="24" width="8" height="8"/><rect class="b" x="14" y="41" width="8" height="8"/><rect class="b" x="14" y="58" width="8" height="8"/><rect class="g" x="48" y="24" width="8" height="8"/><rect class="r" x="48" y="41" width="8" height="8" opacity=".35"/><rect class="g" x="48" y="58" width="8" height="8"/><rect class="y" x="80" y="24" width="8" height="8"/><rect class="y" x="80" y="41" width="8" height="8"/><rect class="r" x="80" y="58" width="8" height="8" opacity=".35"/><path class="line" d="M100 45h35" marker-end="url(#arr)"/><rect class="box" x="112" y="65" width="22" height="10"/>
  </symbol>

  <symbol id="thumb-adaptive-fpl" viewBox="0 0 154 96">
    <rect class="bg" width="154" height="96"/>
    <rect class="box" x="10" y="20" width="38" height="30"/><ellipse class="g" cx="29" cy="35" rx="13" ry="9"/><path class="thin" d="M17 27h24M17 43h24"/><path class="line" d="M53 35h16" marker-end="url(#arr)"/><rect class="box" x="74" y="20" width="28" height="30"/><path class="grid" d="M81 20v30M88 20v30M95 20v30M74 28h28M74 36h28M74 44h28"/><path class="axis" d="M113 76h31M113 76V28"/><path class="line" d="M115 71c6-25 12-32 19-14 4 11 7 7 10-8"/>
  </symbol>

  <symbol id="thumb-oversmoothing" viewBox="0 0 154 96">
    <rect class="bg" width="154" height="96"/>
    <rect class="box" x="11" y="19" width="40" height="38"/><path class="grid" d="M21 19v38M31 19v38M41 19v38M11 28h40M11 38h40M11 48h40"/><path class="line" d="M59 38h20" marker-end="url(#arr)"/><rect class="box" x="88" y="19" width="40" height="38"/><path class="thin" d="M98 19v38M108 19v38M118 19v38M88 28h40M88 38h40M88 48h40"/><path class="axis" d="M16 76h111"/><path class="line" d="M18 72c19-30 33-20 48-8s32 8 56-21"/>
  </symbol>

  <symbol id="thumb-transformer-nas" viewBox="0 0 154 96">
    <rect class="bg" width="154" height="96"/>
    <rect class="box" x="13" y="23" width="37" height="48"/><path class="thin" d="M19 31h25M19 40h25M19 49h25M19 58h25"/><rect class="b" x="62" y="21" width="16" height="48"/><rect class="g" x="83" y="17" width="16" height="56"/><rect class="y" x="104" y="28" width="16" height="34"/><path class="thin" d="M78 45h5M99 45h5"/><path class="axis" d="M131 76h17M131 76V25"/><path class="line" d="M132 70c4-28 9-35 16-19"/>
  </symbol>

  <symbol id="thumb-ddpnas" viewBox="0 0 154 96">
    <rect class="bg" width="154" height="96"/>
    <path class="axis" d="M13 75h77M13 75V23"/><path class="grid" d="M13 62h77M13 49h77M13 36h77"/><path class="line" d="M16 65c10-34 22-34 34 0s25 34 38-3"/><path class="r" d="M101 21h40l-15 56h-10z"/><path class="thin" d="M107 34h26M110 47h19M114 60h11"/>
  </symbol>

  <symbol id="thumb-migo-nas" viewBox="0 0 154 96">
    <rect class="bg" width="154" height="96"/>
    <path class="axis" d="M18 76h112M18 76V23"/><path class="grid" d="M18 62h112M18 48h112M18 34h112M42 76V23M66 76V23M90 76V23M114 76V23"/><path class="thin" d="M27 72c22-18 43-21 63-13s31 2 44-14"/><path class="line" d="M27 68c25-27 46-31 66-15s31 1 41-21"/><circle class="m" cx="27" cy="68" r="3.5"/><circle class="ok" cx="94" cy="53" r="3.5"/><circle class="w" cx="134" cy="32" r="3.5"/><path class="thin" d="M105 66h24M105 70h18"/>
  </symbol>

  <symbol id="thumb-evolving-automl" viewBox="0 0 154 96">
    <rect class="bg" width="154" height="96"/>
    <path class="axis" d="M13 76h125M13 76V20"/><rect class="y" x="22" y="62" width="24" height="14"/><rect class="g" x="58" y="51" width="24" height="25"/><rect class="b" x="94" y="35" width="24" height="41"/><path class="line" d="M46 62l12-7M82 51l12-8"/><rect class="box" x="114" y="17" width="24" height="12"/><path class="thin" d="M126 29v6"/><circle class="m" cx="35" cy="43" r="3.5"/><circle class="ok" cx="70" cy="33" r="3.5"/>
  </symbol>

  <symbol id="thumb-binarized-nas" viewBox="0 0 154 96">
    <rect class="bg" width="154" height="96"/>
    <rect class="box" x="15" y="25" width="109" height="30"/><rect class="b" x="23" y="32" width="15" height="16"/><rect class="g" x="62" y="32" width="15" height="16"/><rect class="y" x="101" y="32" width="15" height="16"/><path class="line" d="M38 40h24M77 40h24"/><path class="thin" d="M23 60v12M62 60v12M101 60v12"/><rect class="box" x="31" y="68" width="13" height="9"/><rect class="dark" x="70" y="68" width="13" height="9"/><rect class="box" x="109" y="68" width="13" height="9"/>
  </symbol>
</svg>
